<svg xmlns="http://www.w3.org/2000/svg" width="1365.333" height="1365.333" version="1" viewBox="0 0 1024 1024"><path d="M241.7 98.6c-.1.1-4.7.4-10.2.8-5.5.3-11.1.8-12.4 1-1.2.3-4.2.8-6.5 1.1-3.6.4-18.2 3.4-24.4 4.8-13.9 3.4-35.4 11.7-51.7 20-9.7 4.9-34.4 20.3-36.5 22.6-.3.4-3.9 3.3-8 6.6-11.7 9.3-32.9 31-38.9 39.8-.8 1.2-1.8 2.4-2.1 2.7-1.1.9-13.4 19.2-17.1 25.6-17 28.8-29.8 68.6-32.7 101.3C-.1 340 .7 377 2.5 384c.2.8.6 3.7 1 6.5 2 15.7 10.1 42.7 18.4 61 16.2 36 38.9 65.6 69.8 91.4 8 6.8 26.5 20.1 27.8 20.1.3 0 2.8 1.5 5.7 3.4 16.4 10.4 48.9 23.2 70.3 27.6 15.6 3.3 23.7 4.5 36 5.5 7.5.7 33 .7 38 .1 1.7-.2 6.4-.7 10.5-1.1 4.1-.4 8.4-.9 9.5-1.1 1.1-.2 4.7-.9 8-1.5 13-2.3 37.1-9.3 46.2-13.5 1.7-.8 3.3-1.4 3.6-1.4 1.3 0 25.6-12.1 29-14.4 2.1-1.4 4-2.6 4.3-2.6 1 0 18.3-12.1 25.9-18.1 40.5-32 71-77.2 85-125.9 3.7-13 3.9-13.6 6-25.1 3.3-18.2 4.2-29.3 3.9-49.9-.2-9.6-.5-18.9-.7-20.5-.3-1.7-.8-5.5-1.2-8.5-.6-4.7-2-12.5-4.1-22.8-1.1-5.5-3.4-13.5-6.8-23.6-15-44.8-42.5-84.4-79.6-114.7-9.1-7.4-24.1-18-30.5-21.5-18-10-31.6-16.3-46-21.2-9.2-3.2-26.4-7.9-32.4-8.8-1.8-.3-4.3-.8-5.5-1-4.3-.9-14.4-2.3-21.6-3-5.6-.5-30.8-1.2-31.3-.8zM191 235.4c34.3 4.2 57.3 23.7 61.8 52.6.8 5.5.9 20.2.1 25-4.4 25.1-21 42.5-48.1 50.4-11.1 3.2-18 3.9-38.8 4l-17.5.1-.2 26c-.1 14.3-.2 26.3-.2 26.7-.1.5-11.5.8-25.5.8-19.4 0-25.5-.3-25.8-1.3-.3-1-.2-178.9.1-183.7.1-1.3 5.7-1.5 44.8-1.3 24.7.1 46.8.4 49.3.7zm138.3 84.3C337 343 343.6 362 344 362c.4 0 1.6-3.3 2.8-7.3 1.1-3.9 3.5-11.7 5.2-17.2 1.8-5.5 4.2-13.4 5.5-17.5 5.3-17.4 13.3-42.1 13.7-42.6.3-.2 12-.3 26-.2l25.5.3-13.3 35.5c-7.4 19.5-14.5 38.4-15.8 42-7.2 19.7-23.9 63.5-26.6 70-6.1 14.8-13.2 24.7-21.9 30.9-3.3 2.2-6.4 4.1-7 4.1-.6 0-1.9.4-2.9 1-5.8 3.2-24.9 3.7-38 1-8.6-1.7-20.2-5.8-25.3-8.9l-2.7-1.6 7.5-17c4.1-9.4 7.7-17.2 7.9-17.4.2-.2 3.6 1.1 7.6 2.9 5.7 2.6 8.7 3.3 13.8 3.4 6.9.1 12-2.1 12-5.2 0-1.4-3.6-11.4-6-16.7-.5-1.1-3.7-9-7-17.5-5.9-14.8-6.8-17.2-9-22.3-.5-1.2-8.3-20.8-17.4-43.5L262.2 277l26.6.2 26.6.3 13.9 42.2z"/><path d="M148.3 302.5v24.7l17.6-.4c15.1-.4 18.2-.7 22.1-2.5 15.5-7.2 19.3-27.9 7.1-39.2-5.9-5.4-10.3-6.4-29.2-6.9l-17.6-.4v24.7zM656.5 130.7c-24.2 14-45.4 26.4-47.2 27.4-17.1 9.8-51.4 29.6-53.6 30.9l-2.8 1.8 11.3 6.5c6.3 3.6 12.9 7.4 14.8 8.4 4.3 2.4 48.9 28.2 78 45.1 11.8 6.9 23.5 13.6 26 15 2.5 1.4 7.7 4.4 11.7 6.8 4.4 2.6 7.3 3.8 7.5 3.1.3-.7.4-12.8.3-27 0-16.9.3-25.7 1-25.8 6.1-.3 148.6.2 150.2.5 1.1.3 4.3.8 7 1.1 11.1 1.6 27.1 7.2 38.7 13.8 29.5 16.6 50.7 45.6 57.7 78.9 2 9.2 2.2 14 2.5 43.3.2 18.1.6 34.7.8 36.8 1.7 12.2 11.4 22.9 23.9 26.1 14.3 3.7 29.7-3.6 36.4-17.2l2.8-5.7v-38c0-27.5-.4-40.2-1.4-46-.7-4.4-1.5-8.9-1.6-10-.2-1.1-1.3-5.7-2.4-10.3-10.7-41.4-35.6-77.8-70.8-103.3-4.4-3.2-8.4-5.9-8.7-5.9-.3 0-2.9-1.5-5.8-3.3-14.5-9.2-43.8-20-60.4-22.3-2.7-.3-5.8-.8-6.9-1-6.5-1.3-23.4-1.7-89-1.9-40.1-.1-73.3-.3-73.6-.4-.3 0-.5-11.5-.4-25.4.1-24.6 0-27.8-1.4-27.6-.3 0-20.4 11.6-44.6 25.6zM766.7 423.6c-.1.1-4.7.4-10.2.8-8.8.5-21.7 1.9-27.2 3.1-12.8 2.6-18.8 4-26 6.1-65.2 18.9-121.2 65-152.7 125.6-19.7 37.8-28.7 76.4-28 119.8.2 9.6.6 19.1.8 21 .3 1.9.8 5.7 1.1 8.5 2.4 21.8 12.2 53.6 23.8 77.5 5.4 11 22.7 38.8 25.7 41 .3.3 1.3 1.5 2.1 2.7 2.7 4 11.3 13.6 19.4 21.7 27.8 28.1 61.8 49 99.5 61.6 11 3.6 30.7 8.4 39.5 9.5 1.7.2 4.8.7 7 .9 14.7 2 39.2 2.5 53.4 1.2 23.7-2.1 49.6-8.3 71.6-17.2 13.4-5.3 32.4-15.4 45.6-24.3 7.4-4.9 14.3-9.8 15.4-10.8 1.1-1 4.3-3.6 7-5.8 5.1-4.1 21.1-19.8 27.6-27.1 11.1-12.4 27.5-36.7 34.9-51.5 10.4-20.9 19.4-48 23-68.9.6-3.6 1.3-7.6 1.5-9 2.6-15.2 2.7-51.9.1-70.2-1.1-7.6-2-12.4-3.6-19.3-.6-2.8-1.3-5.7-1.5-6.5-.7-3.7-2.9-11.1-5.2-18-18.9-56.4-55.9-103.1-107.4-135.4-7.8-4.9-31-16.7-37-18.8-2.4-.9-8.4-3-13.4-4.7-14-4.9-35.4-9.9-50-11.6-9-1-36.1-2.4-36.8-1.9zM764.1 584c.3 6.9.4 38.7.1 40-.3 1.3-6.5 1.5-49.2 1.4-34 0-49 .3-49.3 1-.1.6-.3 6.9-.2 14.1v13l44 .1c24.2.1 44.3.2 44.8.3.4 0 .6 9.2.5 20.3l-.3 20.1h-89v29.2l47.5.2c26.1.1 48.6.2 50 .2l2.6.1-.1 21.7v21.8h-151l-.1-92c0-50.6.1-92.5.3-93 .2-.7 24.7-1 74.8-1H764l.1 2.5zm138.4 40.1c10 3.7 17.6 10.6 22.5 20.4 6.3 12.6 6.3 12.8 6.5 70.6l.2 52.6h-25.3l-25.4-.1-.1-41.5c0-22.9-.2-42.6-.5-43.9-.6-3.5-3.9-9.4-6.6-11.9-3.3-3.1-7.5-4.5-13.5-4.4-10.3.1-17.2 6-20.1 17.1-.2.8-.4 20.2-.5 43l-.2 41.5-25.2.1-25.3.1v-71.9c0-56.7.3-71.8 1.3-71.9 1.8-.1 45.9-.1 47.7 0 1.3.1 1.5 1.8 1.5 9.6 0 5.2.3 9.5.7 9.5.4 0 2.2-1.8 3.9-4 8.1-10 21.4-16.9 35.4-18.2 5.5-.5 17.3 1.2 23 3.3zM23.6 600.7c-9.3 2.7-16.8 9.3-21 18.2-2 4.4-2.1 6.2-2.2 41.6-.1 44.8 1.1 55.1 9.6 80.6 13.9 41.5 42.3 76.3 81.5 99.6 16.1 9.5 43.3 19.5 60 21.8 2.8.4 5.9.9 7 1.2 6.6 1.3 24.7 1.6 89.7 1.7 49.3 0 72.9.4 73.1 1.1.2.5.3 12.7.3 27.1l-.1 26.1 3.5-2c1.9-1 6.4-3.6 10-5.7 3.6-2.1 8.1-4.7 10-5.8 1.9-1 8.5-4.8 14.6-8.4 6.1-3.6 11.7-6.8 12.5-7.1.8-.4 2.8-1.5 4.4-2.6 2.7-1.6 23.7-13.8 32.7-18.9 1.8-1.1 7.4-4.3 12.3-7.2 5-2.9 10.8-6.2 13-7.5 5.8-3.3 35.9-20.7 36.3-21 .2-.2-9.3-5.8-21-12.5-11.7-6.8-29.8-17.3-40.3-23.3-10.4-6.1-20.1-11.6-21.5-12.4-1.4-.7-16.7-9.5-34-19.6-21.2-12.3-31.7-17.9-32-17-.3.7-.5 12.7-.5 26.8l.1 25.5-17.6.1c-44 .1-130.7-.2-133-.5-8.7-1.2-12.3-1.9-19-3.7-8.6-2.2-8.7-2.3-19.5-7.4-31.4-14.7-55.1-42.9-64-76-3.3-12.4-3.7-17.9-4.1-50.5-.1-18.4-.6-35.2-.9-37.3-.3-2.1-1.7-6.1-3-8.7-6.8-13.4-22.7-20.4-36.9-16.3z"/></svg>
