<?xml version="1.0" standalone="no"?>
<!DOCTYPE svg PUBLIC "-//W3C//DTD SVG 20010904//EN"
 "http://www.w3.org/TR/2001/REC-SVG-20010904/DTD/svg10.dtd">
<svg version="1.0" xmlns="http://www.w3.org/2000/svg"
 width="1024.000000pt" height="1024.000000pt" viewBox="0 0 1024.000000 1024.000000"
 preserveAspectRatio="xMidYMid meet">
<metadata>
Created by potrace 1.11, written by Peter Selinger 2001-2013
</metadata>
<g transform="translate(0.000000,1024.000000) scale(0.100000,-0.100000)"
fill="#000000" stroke="none">
<path d="M2417 9254 c-1 -1 -47 -4 -102 -8 -55 -3 -111 -8 -124 -10 -12 -3
-42 -8 -65 -11 -36 -4 -182 -34 -244 -48 -139 -34 -354 -117 -517 -200 -97
-49 -344 -203 -365 -226 -3 -4 -39 -33 -80 -66 -117 -93 -329 -310 -389 -398
-8 -12 -18 -24 -21 -27 -11 -9 -134 -192 -171 -256 -170 -288 -298 -686 -327
-1013 -13 -151 -5 -521 13 -591 2 -8 6 -37 10 -65 20 -157 101 -427 184 -610
162 -360 389 -656 698 -914 80 -68 265 -201 278 -201 3 0 28 -15 57 -34 164
-104 489 -232 703 -276 156 -33 237 -45 360 -55 75 -7 330 -7 380 -1 17 2 64
7 105 11 41 4 84 9 95 11 11 2 47 9 80 15 130 23 371 93 462 135 17 8 33 14
36 14 13 0 256 121 290 144 21 14 40 26 43 26 10 0 183 121 259 181 405 320
710 772 850 1259 37 130 39 136 60 251 33 182 42 293 39 499 -2 96 -5 189 -7
205 -3 17 -8 55 -12 85 -6 47 -20 125 -41 228 -11 55 -34 135 -68 236 -150
448 -425 844 -796 1147 -91 74 -241 180 -305 215 -180 100 -316 163 -460 212
-92 32 -264 79 -324 88 -18 3 -43 8 -55 10 -43 9 -144 23 -216 30 -56 5 -308
12 -313 8z m-507 -1368 c343 -42 573 -237 618 -526 8 -55 9 -202 1 -250 -44
-251 -210 -425 -481 -504 -111 -32 -180 -39 -388 -40 l-175 -1 -2 -260 c-1
-143 -2 -263 -2 -267 -1 -5 -115 -8 -255 -8 -194 0 -255 3 -258 13 -3 10 -2
1789 1 1837 1 13 57 15 448 13 247 -1 468 -4 493 -7z m1383 -843 c77 -233 143
-423 147 -423 4 0 16 33 28 73 11 39 35 117 52 172 18 55 42 134 55 175 53
174 133 421 137 426 3 2 120 3 260 2 l255 -3 -133 -355 c-74 -195 -145 -384
-158 -420 -72 -197 -239 -635 -266 -700 -61 -148 -132 -247 -219 -309 -33 -22
-64 -41 -70 -41 -6 0 -19 -4 -29 -10 -58 -32 -249 -37 -380 -10 -86 17 -202
58 -253 89 l-27 16 75 170 c41 94 77 172 79 174 2 2 36 -11 76 -29 57 -26 87
-33 138 -34 69 -1 120 21 120 52 0 14 -36 114 -60 167 -5 11 -37 90 -70 175
-59 148 -68 172 -90 223 -5 12 -83 208 -174 435 l-164 412 266 -2 266 -3 139
-422z"/>
<path d="M1483 7215 l0 -247 176 4 c151 4 182 7 221 25 155 72 193 279 71 392
-59 54 -103 64 -292 69 l-176 4 0 -247z"/>
<path d="M6565 8933 c-242 -140 -454 -264 -472 -274 -171 -98 -514 -296 -536
-309 l-28 -18 113 -65 c63 -36 129 -74 148 -84 43 -24 489 -282 780 -451 118
-69 235 -136 260 -150 25 -14 77 -44 117 -68 44 -26 73 -38 75 -31 3 7 4 128
3 270 0 169 3 257 10 258 61 3 1486 -2 1502 -5 11 -3 43 -8 70 -11 111 -16
271 -72 387 -138 295 -166 507 -456 577 -789 20 -92 22 -140 25 -433 2 -181 6
-347 8 -368 17 -122 114 -229 239 -261 143 -37 297 36 364 172 l28 57 0 380
c0 275 -4 402 -14 460 -7 44 -15 89 -16 100 -2 11 -13 57 -24 103 -107 414
-356 778 -708 1033 -44 32 -84 59 -87 59 -3 0 -29 15 -58 33 -145 92 -438 200
-604 223 -27 3 -58 8 -69 10 -65 13 -234 17 -890 19 -401 1 -733 3 -736 4 -3
0 -5 115 -4 254 1 246 0 278 -14 276 -3 0 -204 -116 -446 -256z"/>
<path d="M7667 6004 c-1 -1 -47 -4 -102 -8 -88 -5 -217 -19 -272 -31 -128 -26
-188 -40 -260 -61 -652 -189 -1212 -650 -1527 -1256 -197 -378 -287 -764 -280
-1198 2 -96 6 -191 8 -210 3 -19 8 -57 11 -85 24 -218 122 -536 238 -775 54
-110 227 -388 257 -410 3 -3 13 -15 21 -27 27 -40 113 -136 194 -217 278 -281
618 -490 995 -616 110 -36 307 -84 395 -95 17 -2 48 -7 70 -9 147 -20 392 -25
534 -12 237 21 496 83 716 172 134 53 324 154 456 243 74 49 143 98 154 108
11 10 43 36 70 58 51 41 211 198 276 271 111 124 275 367 349 515 104 209 194
480 230 689 6 36 13 76 15 90 26 152 27 519 1 702 -11 76 -20 124 -36 193 -6
28 -13 57 -15 65 -7 37 -29 111 -52 180 -189 564 -559 1031 -1074 1354 -78 49
-310 167 -370 188 -24 9 -84 30 -134 47 -140 49 -354 99 -500 116 -90 10 -361
24 -368 19z m-26 -1604 c3 -69 4 -387 1 -400 -3 -13 -65 -15 -492 -14 -340 0
-490 -3 -493 -10 -1 -6 -3 -69 -2 -141 l0 -130 440 -1 c242 -1 443 -2 448 -3
4 0 6 -92 5 -203 l-3 -201 -445 0 -445 0 0 -146 0 -146 475 -2 c261 -1 486 -2
500 -2 l26 -1 -1 -217 0 -218 -755 0 -755 0 -1 920 c0 506 1 925 3 930 2 7
247 10 748 10 l745 0 1 -25z m1384 -401 c100 -37 176 -106 225 -204 63 -126
63 -128 65 -706 l2 -526 -253 0 -254 1 -1 415 c0 229 -2 426 -5 439 -6 35 -39
94 -66 119 -33 31 -75 45 -135 44 -103 -1 -172 -60 -201 -171 -2 -8 -4 -202
-5 -430 l-2 -415 -252 -1 -253 -1 0 719 c0 567 3 718 13 719 18 1 459 1 477 0
13 -1 15 -18 15 -96 0 -52 3 -95 7 -95 4 0 22 18 39 40 81 100 214 169 354
182 55 5 173 -12 230 -33z"/>
<path d="M236 4233 c-93 -27 -168 -93 -210 -182 -20 -44 -21 -62 -22 -416 -1
-448 11 -551 96 -806 139 -415 423 -763 815 -996 161 -95 433 -195 600 -218
28 -4 59 -9 70 -12 66 -13 247 -16 897 -17 493 0 729 -4 731 -11 2 -5 3 -127
3 -271 l-1 -261 35 20 c19 10 64 36 100 57 36 21 81 47 100 58 19 10 85 48
146 84 61 36 117 68 125 71 8 4 28 15 44 26 27 16 237 138 327 189 18 11 74
43 123 72 50 29 108 62 130 75 58 33 359 207 363 210 2 2 -93 58 -210 125
-117 68 -298 173 -403 233 -104 61 -201 116 -215 124 -14 7 -167 95 -340 196
-212 123 -317 179 -320 170 -3 -7 -5 -127 -5 -268 l1 -255 -176 -1 c-440 -1
-1307 2 -1330 5 -87 12 -123 19 -190 37 -86 22 -87 23 -195 74 -314 147 -551
429 -640 760 -33 124 -37 179 -41 505 -1 184 -6 352 -9 373 -3 21 -17 61 -30
87 -68 134 -227 204 -369 163z"/>
</g>
</svg>
